{
  "asset": {
    "version": "2.0",
    "generator": "THREE.GLTFExporter"
  },
  "scenes": [
    {
      "name": "Scene",
      "nodes": [
        0,
        2
      ]
    }
  ],
  "scene": 0,
  "nodes": [
    {
      "name": "isocube.glb"
    },
    {
      "matrix": [
        2.2412123680114746,
        0,
        0,
        0,
        0,
        2.2412123680114746,
        0,
        0,
        0,
        0,
        2.2412123680114746,
        0,
        0,
        0,
        0,
        1
      ],
      "name": "Icosphere",
      "extras": {
        "name": "Icosphere"
      },
      "mesh": 0
    },
    {
      "name": "isocube.glb",
      "children": [
        1
      ]
    }
  ],
  "bufferViews": [
    {
      "buffer": 0,
      "byteOffset": 0,
      "byteLength": 92160,
      "target": 34962,
      "byteStride": 12
    },
    {
      "buffer": 0,
      "byteOffset": 92160,
      "byteLength": 92160,
      "target": 34962,
      "byteStride": 12
    },
    {
      "buffer": 0,
      "byteOffset": 184320,
      "byteLength": 46080,
      "target": 34963
    }
  ],
  "buffers": [
    {
      "byteLength": 230400,
      "uri": "data:application/octet-stream;base64,"
    }
  ],
  "accessors": [
    {
      "bufferView": 0,
      "componentType": 5126,
      "count": 7680,
      "max": [
        1.0010578632354736,
        1.0480968952178955,
        1.0480834245681763
      ],
      "min": [
        -1.0010578632354736,
        -1.0480968952178955,
        -1.0480834245681763
      ],
      "type": "VEC3"
    },
    {
      "bufferView": 1,
      "componentType": 5126,
      "count": 7680,
      "max": [
        1,
        1,
        1
      ],
      "min": [
        -1,
        -1,
        -1
      ],
      "type": "VEC3"
    },
    {
      "bufferView": 2,
      "componentType": 5123,
      "count": 23040,
      "max": [
        7679
      ],
      "min": [
        0
      ],
      "type": "SCALAR"
    }
  ],
  "materials": [
    {
      "pbrMetallicRoughness": {
        "metallicFactor": 0,
        "roughnessFactor": 0.5
      },
      "doubleSided": true,
      "name": "white"
    }
  ],
  "meshes": [
    {
      "primitives": [
        {
          "mode": 4,
          "attributes": {
            "POSITION": 0,
            "NORMAL": 1
          },
          "indices": 2,
          "material": 0
        }
      ]
    }
  ]
}